<svg width="260" height="94" viewBox="0 0 260 94" fill="none" xmlns="http://www.w3.org/2000/svg">
<rect width="260" height="94" rx="17" fill="black"/>
<g clip-path="url(#clip0)">
<rect x="36" y="26" width="45" height="45" fill="white"/>
<path d="M43.46 21C41.8225 20.9954 40.2002 21.3146 38.6864 21.9391C37.1726 22.5636 35.7971 23.4813 34.6392 24.6392C33.4813 25.7971 32.5636 27.1726 31.9391 28.6864C31.3146 30.2002 30.9954 31.8225 31 33.46V64.54C30.9954 66.1776 31.3146 67.7999 31.9391 69.3137C32.5636 70.8275 33.4813 72.203 34.6392 73.3609C35.7971 74.5188 37.1726 75.4365 38.6864 76.061C40.2002 76.6855 41.8225 77.0047 43.46 77H74.54C76.1776 77.0047 77.7999 76.6855 79.3137 76.061C80.8275 75.4365 82.203 74.5188 83.3609 73.3609C84.5188 72.203 85.4365 70.8275 86.061 69.3137C86.6855 67.7999 87.0047 66.1776 87 64.54V33.46C87.0047 31.8225 86.6855 30.2002 86.061 28.6864C85.4365 27.1726 84.5188 25.7971 83.3609 24.6392C82.203 23.4813 80.8275 22.5636 79.3137 21.9391C77.7999 21.3146 76.1776 20.9954 74.54 21H43.46ZM58.6798 26.9868C64.1311 26.9868 69.0608 29.0938 72.8181 33.0295C75.6723 35.9923 77.2753 39.1353 78.0961 43.2758C78.3778 44.653 78.3778 48.4068 78.1118 49.9555C77.2403 54.8801 74.5423 59.2944 70.557 62.3158C69.1361 63.392 65.6623 65.2611 65.1058 65.2611C64.8958 65.2611 64.8801 65.051 64.9711 64.1848C65.1443 62.7988 65.307 62.517 66.091 62.188C67.3388 61.67 69.472 60.1458 70.7758 58.8438C73.0551 56.5651 74.6741 53.7111 75.4605 50.5856C75.9523 48.6606 75.8876 44.3853 75.3503 42.4095C73.6546 36.1183 68.5131 31.2358 62.2253 29.9215C60.4036 29.5488 57.0751 29.5488 55.2253 29.9215C48.8623 31.2358 43.5931 36.3668 41.99 42.8208C41.5613 44.5778 41.5613 48.8548 41.99 50.6048C43.0558 54.8801 45.819 58.7965 49.4363 61.1311C50.1486 61.6053 51.0043 62.0883 51.3613 62.2353C52.1436 62.5713 52.3186 62.8565 52.462 64.2303C52.553 65.079 52.5338 65.3153 52.3361 65.3153C52.2083 65.3153 51.2511 64.904 50.2378 64.4211L50.1468 64.3493C44.3771 61.5143 40.6845 56.7123 39.337 50.3213C39.0098 48.671 38.945 44.7441 39.274 43.2303C40.1123 39.1651 41.717 35.9941 44.3858 33.187C48.234 29.1288 53.1831 26.9868 58.6868 26.9868H58.6798ZM59 33.551C59.8652 33.549 60.7285 33.631 61.5778 33.796C68.079 35.245 72.6798 41.7463 71.7855 48.1968C71.4303 50.8026 70.5378 52.9375 68.9523 54.9238C68.1683 55.9266 66.2626 57.6048 65.9266 57.6048C65.8706 57.6048 65.8163 56.966 65.8163 56.1996V54.7855L66.7823 53.6288C70.445 49.2451 70.1825 43.1201 66.189 39.1108C64.6403 37.5428 62.843 36.6205 60.5278 36.2041C59.035 35.9223 58.7236 35.9223 57.1556 36.1848C54.7686 36.5681 52.9258 37.4868 51.2843 39.1108C47.275 43.0851 47.0091 49.2451 50.6753 53.6288L51.6413 54.7855V56.2083C51.6413 56.9923 51.5766 57.6206 51.4943 57.6206C51.4313 57.6206 50.8836 57.2478 50.299 56.7823L50.2168 56.7543C48.2761 55.2056 46.5628 52.4616 45.8505 49.7631C45.4236 48.1321 45.4235 45.0433 45.8698 43.4193C47.0458 39.0355 50.2815 35.6353 54.7581 34.041C55.7153 33.7033 57.3988 33.5213 58.986 33.5493L59 33.551ZM58.6903 40.5231C59.42 40.5231 60.1393 40.67 60.6696 40.9431C61.7983 41.5363 62.7398 42.6738 63.0933 43.8778C64.1783 47.5598 60.2775 50.7868 56.739 49.1365H56.7128C55.045 48.3613 54.1508 46.9036 54.1315 45.0065C54.1315 43.2933 55.0783 41.8076 56.7285 40.9326C57.2483 40.6595 57.9693 40.5213 58.6973 40.5213L58.6903 40.5231ZM58.6711 51.5621C60.9793 51.5533 62.6453 52.3723 63.2648 53.8213C63.7285 54.9063 63.5571 58.3241 62.7538 63.8576C62.2166 67.7215 61.9156 68.6963 61.17 69.3543C60.1393 70.2643 58.6903 70.5216 57.3043 70.0281H57.2973C55.6296 69.4261 55.2726 68.6141 54.5795 63.8558C53.7885 58.3241 53.6136 54.9045 54.0808 53.8195C54.6898 52.3793 56.3488 51.5708 58.6728 51.5603L58.6711 51.5621Z" fill="url(#paint0_linear)"/>
</g>
<path d="M108.159 36.123C110.453 36.123 112.264 34.7168 112.264 32.5195C112.264 28.415 106.006 29.3555 106.006 26.6133C106.006 25.5586 106.885 24.8115 108.036 24.8115C109.082 24.8115 109.882 25.3037 110.409 26.2793L111.692 25.4883C110.884 24.0557 109.609 23.4316 108.089 23.4316C106.094 23.4316 104.459 24.6621 104.459 26.6836C104.459 30.6211 110.717 29.6191 110.717 32.6514C110.717 33.8379 109.75 34.7432 108.186 34.7432C106.639 34.7432 105.443 33.9082 105.224 32.2471L103.694 32.6338C104.072 34.9189 105.997 36.123 108.159 36.123ZM117.089 36.1494C118.152 36.1494 119.189 35.666 119.787 34.6641V36H121.264V27.2197H119.787V32.2822C119.787 33.9258 118.891 34.7695 117.493 34.7695C116.166 34.7695 115.472 33.8643 115.472 32.4141V27.2197H113.995V32.6777C114.021 34.5586 114.953 36.1494 117.089 36.1494ZM128.708 36.1494C131.09 36.1494 132.435 34.0752 132.435 31.6055C132.435 29.127 131.09 27.0703 128.682 27.0703C127.442 27.0703 126.344 27.6943 125.772 28.8018V23.5811H124.234V36H125.772V34.4092C126.344 35.5254 127.478 36.1494 128.708 36.1494ZM128.348 34.7695C126.634 34.7695 125.641 33.4072 125.641 31.6055C125.641 29.8037 126.634 28.4238 128.348 28.4238C130.062 28.4238 130.94 29.8213 130.94 31.6055C130.94 33.3896 130.062 34.7695 128.348 34.7695ZM137.312 36.1494C139.009 36.1494 140.538 35.2529 140.538 33.4072C140.538 30.0938 135.625 31.2891 135.625 29.3906C135.625 28.7314 136.249 28.2568 137.242 28.2568C138.271 28.2568 138.921 28.8457 139.308 29.5488L140.459 28.9248C139.826 27.7559 138.719 27.0703 137.295 27.0703C135.607 27.0703 134.201 27.9316 134.201 29.584C134.201 32.7393 139.07 31.3945 139.07 33.4775C139.07 34.251 138.455 34.9014 137.242 34.9014C135.95 34.9014 135.212 34.0928 134.913 33.2578L133.709 33.7852C134.148 35.1211 135.537 36.1494 137.312 36.1494ZM146.058 36.1494C147.719 36.1494 149.02 35.2354 149.573 33.6621L148.22 33.1523C147.903 34.1543 147.095 34.7959 146.04 34.7959C144.282 34.7959 143.518 33.2754 143.518 31.623C143.518 29.9971 144.282 28.4238 146.04 28.4238C147.086 28.4238 147.895 29.0742 148.246 30.0938L149.661 29.54C149.011 27.9053 147.684 27.0703 146.04 27.0703C143.324 27.0703 142.006 29.3203 142.006 31.623C142.006 34.0576 143.421 36.1494 146.058 36.1494ZM151.639 36H153.08V31.7725C153.08 29.4434 154.354 28.5205 155.462 28.5205C155.813 28.5205 156.147 28.6172 156.446 28.7842L157.132 27.5537C156.736 27.2197 156.2 27.0703 155.682 27.0703C154.653 27.0703 153.511 27.6768 153.089 28.9424V27.2197H151.639V36ZM158.67 25.4443H160.226V23.5811H158.67V25.4443ZM158.705 36H160.19V27.2197H158.705V36ZM167.626 36.1494C170.008 36.1494 171.353 34.0752 171.353 31.6055C171.353 29.127 170.008 27.0703 167.6 27.0703C166.36 27.0703 165.262 27.6943 164.69 28.8018V23.5811H163.152V36H164.69V34.4092C165.262 35.5254 166.396 36.1494 167.626 36.1494ZM167.266 34.7695C165.552 34.7695 164.559 33.4072 164.559 31.6055C164.559 29.8037 165.552 28.4238 167.266 28.4238C168.979 28.4238 169.858 29.8213 169.858 31.6055C169.858 33.3896 168.979 34.7695 167.266 34.7695ZM177.092 36.1494C178.524 36.1494 179.579 35.6924 180.555 34.6465L179.518 33.7412C178.788 34.5146 178.067 34.7959 177.101 34.7959C175.457 34.7959 174.569 33.7412 174.455 32.0537H180.774C180.81 31.9219 180.845 31.5703 180.845 31.2451C180.845 29.4346 179.887 27.0703 176.942 27.0703C174.253 27.0703 172.882 29.2324 172.882 31.6494C172.882 34.1191 174.314 36.1494 177.092 36.1494ZM174.455 30.9639C174.622 29.4258 175.448 28.3271 176.934 28.3271C178.41 28.3271 179.184 29.3203 179.333 30.4102C179.368 30.5859 179.368 30.7705 179.368 30.9639H174.455ZM191.084 36.1494C193.659 36.1494 195.426 34.1016 195.426 31.5879C195.426 29.0918 193.659 27.0703 191.084 27.0703C188.509 27.0703 186.76 29.0918 186.76 31.5879C186.76 34.1016 188.509 36.1494 191.084 36.1494ZM191.084 34.8574C189.282 34.8574 188.307 33.3721 188.307 31.5879C188.307 29.8125 189.282 28.3623 191.084 28.3623C192.895 28.3623 193.879 29.8213 193.879 31.5879C193.879 33.3633 192.895 34.8574 191.084 34.8574ZM197.605 36H199.091V30.9375C199.091 29.2852 199.979 28.4502 201.376 28.4502C202.703 28.4502 203.397 29.3555 203.397 30.8057V36H204.883V30.5332C204.856 28.6523 203.916 27.0703 201.78 27.0703C200.717 27.0703 199.697 27.5537 199.091 28.5557V27.2197H197.605V36Z" fill="white"/>
<path d="M102.312 64H104.952C105.432 64 105.696 63.712 105.816 63.424L106.68 61.504H113.208L114.072 63.4C114.288 63.856 114.48 64 114.912 64H117.576C117.936 64 118.128 63.688 117.984 63.376L110.472 47.224C110.4 47.08 110.232 46.96 110.064 46.96H109.824C109.656 46.96 109.488 47.08 109.416 47.224L101.904 63.376C101.76 63.688 101.952 64 102.312 64ZM108.12 58.24L109.92 54.28H109.944L111.768 58.24H108.12ZM122.622 63.784C122.91 63.952 123.798 64.24 124.614 64.24C127.182 64.24 129.39 62.584 129.39 59.2C129.39 56.44 127.35 54.16 124.638 54.16C122.526 54.16 121.422 55.672 121.422 55.672L121.134 54.88C121.038 54.616 120.87 54.4 120.63 54.4H119.502C119.262 54.4 119.046 54.616 119.046 54.856V70.744C119.046 70.984 119.262 71.2 119.502 71.2H122.166C122.406 71.2 122.622 70.984 122.622 70.744V63.784ZM122.238 59.224C122.238 58.12 123.054 57.256 124.158 57.256C125.262 57.256 126.102 58.12 126.102 59.224C126.102 60.304 125.262 61.144 124.158 61.144C123.054 61.144 122.238 60.304 122.238 59.224ZM134.856 63.784C135.144 63.952 136.032 64.24 136.848 64.24C139.416 64.24 141.624 62.584 141.624 59.2C141.624 56.44 139.584 54.16 136.872 54.16C134.76 54.16 133.656 55.672 133.656 55.672L133.368 54.88C133.272 54.616 133.104 54.4 132.864 54.4H131.736C131.496 54.4 131.28 54.616 131.28 54.856V70.744C131.28 70.984 131.496 71.2 131.736 71.2H134.4C134.64 71.2 134.856 70.984 134.856 70.744V63.784ZM134.472 59.224C134.472 58.12 135.288 57.256 136.392 57.256C137.496 57.256 138.336 58.12 138.336 59.224C138.336 60.304 137.496 61.144 136.392 61.144C135.288 61.144 134.472 60.304 134.472 59.224ZM143.515 63.544C143.515 63.784 143.731 64 143.971 64H146.611C146.851 64 147.067 63.784 147.067 63.544V47.656C147.067 47.416 146.851 47.2 146.611 47.2H143.971C143.731 47.2 143.515 47.416 143.515 47.656V63.544ZM148.935 59.2C148.935 61.96 151.095 64.24 153.951 64.24C155.463 64.24 156.663 63.712 157.503 62.872C157.719 62.656 157.671 62.368 157.527 62.176L156.327 60.736C156.183 60.568 155.943 60.568 155.727 60.736C155.343 61.024 154.647 61.312 154.047 61.312C152.799 61.312 152.271 60.376 152.199 59.728H157.959C158.175 59.728 158.391 59.56 158.415 59.32C158.439 59.152 158.463 58.84 158.463 58.672C158.463 56.032 156.351 54.16 153.903 54.16C151.071 54.16 148.935 56.488 148.935 59.2ZM152.511 57.856C152.607 57.232 153.159 56.728 153.807 56.728C154.431 56.728 155.031 57.232 155.079 57.856H152.511ZM166.267 63.544C166.267 63.784 166.459 64 166.723 64H169.555C169.795 64 170.011 63.784 170.011 63.544V57.904H172.531C175.459 57.904 177.883 55.48 177.883 52.504C177.883 49.6 175.459 47.2 172.507 47.2H166.723C166.459 47.2 166.267 47.416 166.267 47.656V63.544ZM170.011 54.4V50.728H172.291C173.323 50.728 174.187 51.496 174.187 52.504C174.187 53.584 173.323 54.4 172.291 54.4H170.011ZM178.044 59.176C178.044 61.936 180.3 64.24 183.036 64.24C185.772 64.24 188.028 61.936 188.028 59.176C188.028 56.464 185.772 54.16 183.036 54.16C180.3 54.16 178.044 56.464 178.044 59.176ZM181.14 59.176C181.14 58.12 181.98 57.256 183.036 57.256C184.092 57.256 184.932 58.12 184.932 59.176C184.932 60.256 184.092 61.144 183.036 61.144C181.98 61.144 181.14 60.256 181.14 59.176ZM189.178 59.2C189.178 61.96 191.218 64.24 193.93 64.24C196.042 64.24 197.146 62.728 197.146 62.728L197.434 63.52C197.53 63.784 197.698 64 197.938 64H199.066C199.306 64 199.522 63.784 199.522 63.544V47.656C199.522 47.416 199.306 47.2 199.066 47.2H196.402C196.162 47.2 195.946 47.416 195.946 47.656V54.616C195.658 54.448 194.77 54.16 193.954 54.16C191.386 54.16 189.178 55.816 189.178 59.2ZM192.466 59.176C192.466 58.096 193.306 57.256 194.41 57.256C195.514 57.256 196.33 58.096 196.33 59.176C196.33 60.28 195.514 61.144 194.41 61.144C193.306 61.144 192.466 60.28 192.466 59.176ZM201.365 59.2C201.365 62.08 203.789 64.24 206.525 64.24C208.253 64.24 209.501 63.568 210.389 62.224C210.557 61.984 210.437 61.744 210.221 61.552L208.781 60.304C208.637 60.184 208.421 60.232 208.253 60.4C207.868 60.784 207.461 61.144 206.621 61.144C205.565 61.144 204.749 60.28 204.749 59.2C204.749 58.144 205.613 57.256 206.669 57.256C207.221 57.256 207.725 57.52 208.061 57.88C208.181 58 208.469 58.048 208.589 57.928L210.029 56.56C210.245 56.368 210.317 56.104 210.149 55.888C209.237 54.784 208.061 54.16 206.549 54.16C203.812 54.16 201.365 56.368 201.365 59.2ZM211.539 61.072C211.539 62.968 212.955 64.24 214.851 64.24C216.363 64.24 217.203 63.544 217.755 63.04L218.091 63.688C218.211 63.952 218.379 64 218.523 64H219.579C219.819 64 220.035 63.784 220.035 63.544V58.24C220.035 55.408 218.955 54.16 215.979 54.16C214.683 54.16 213.003 54.448 212.787 54.52C212.571 54.592 212.355 54.76 212.427 55.168L212.643 56.68C212.691 57.04 212.859 57.304 213.219 57.184C213.843 56.992 214.971 56.824 215.619 56.824C216.771 56.824 216.915 57.304 216.915 58.24C216.915 58.24 216.147 57.856 215.067 57.856C212.883 57.856 211.539 59.224 211.539 61.072ZM214.659 60.832C214.659 60.28 215.115 59.824 215.691 59.824C216.267 59.824 216.723 60.28 216.747 60.832C216.747 61.408 216.267 61.888 215.691 61.888C215.115 61.888 214.659 61.408 214.659 60.832ZM222.14 63.448C222.62 63.832 223.82 64.24 225.404 64.24C228.116 64.24 229.46 62.872 229.46 61.192C229.46 59.272 228.116 58.504 226.172 57.832C225.356 57.544 225.092 57.304 225.092 57.064C225.092 56.8 225.308 56.728 225.62 56.728C226.556 56.728 227.66 57.28 227.66 57.28C227.852 57.352 228.092 57.28 228.164 57.136L229.052 55.504C229.196 55.264 229.028 55.048 228.812 54.904C228.284 54.568 227.132 54.16 225.62 54.16C223.028 54.16 221.876 55.456 221.876 57.064C221.876 58.552 222.692 59.632 224.564 60.28C225.788 60.712 225.932 61.048 225.932 61.288C225.932 61.576 225.716 61.72 225.476 61.72C224.444 61.72 223.316 61.096 223.316 61.096C223.124 61 222.884 61.144 222.812 61.288L221.972 62.944C221.852 63.16 221.972 63.304 222.14 63.448ZM231.766 60.904C231.766 63.088 232.822 64.24 234.646 64.24C235.846 64.24 237.55 63.712 237.55 63.712C237.79 63.64 237.91 63.376 237.862 63.16L237.334 61.168C237.262 60.904 237.046 60.808 236.806 60.856C236.566 60.904 236.206 61.024 235.87 61.024C235.582 61.024 235.222 60.976 235.222 60.448V57.448H236.998C237.262 57.448 237.454 57.232 237.454 56.992V54.856C237.454 54.592 237.262 54.4 236.998 54.4H235.222V51.736C235.222 51.496 235.03 51.28 234.79 51.28H232.222C231.982 51.28 231.766 51.496 231.766 51.736V54.4H231.142C230.902 54.4 230.71 54.592 230.71 54.856V56.992C230.71 57.232 230.902 57.448 231.142 57.448H231.766V60.904Z" fill="white"/>
<defs>
<linearGradient id="paint0_linear" x1="59" y1="21" x2="59" y2="77.0001" gradientUnits="userSpaceOnUse">
<stop stop-color="#F151FE"/>
<stop offset="1" stop-color="#872DC3"/>
</linearGradient>
<clipPath id="clip0">
<rect width="56" height="56" fill="white" transform="translate(31 21)"/>
</clipPath>
</defs>
</svg>
