<svg width="260" height="94" viewBox="0 0 260 94" fill="none" xmlns="http://www.w3.org/2000/svg">
<rect width="260" height="94" rx="17" fill="black"/>
<path d="M58.9883 19C43.5557 19 31 31.558 31 46.9907C31 62.4373 43.5557 75 58.9883 75C74.435 75 87 62.435 87 46.9907C87 31.558 74.435 19 58.9883 19ZM44.7853 57.276C47.99 56.2943 51.3224 55.7926 54.674 55.7873C60.3067 55.7873 65.867 57.2153 70.7553 59.9173C71.047 60.076 71.3107 60.5987 71.432 61.252C71.5487 61.9053 71.502 62.575 71.3107 62.9227C71.2205 63.088 71.0984 63.2339 70.9515 63.3517C70.8045 63.4695 70.6356 63.557 70.4546 63.6091C70.2736 63.6612 70.0841 63.6769 69.897 63.6552C69.7099 63.6334 69.5289 63.5748 69.3647 63.4827C65.7741 61.513 61.8246 60.2844 57.7503 59.87C53.676 59.4556 49.5599 59.8636 45.6463 61.07C45.4667 61.1281 45.2772 61.1499 45.0891 61.134C44.9009 61.1182 44.7178 61.0651 44.5504 60.9778C44.3829 60.8905 44.2346 60.7707 44.1139 60.6255C43.9932 60.4803 43.9026 60.3126 43.8473 60.132C43.5977 59.3153 44.1133 57.4953 44.7853 57.276ZM43.565 46.9627C47.1853 45.9791 50.9202 45.4809 54.6717 45.481C61.4243 45.481 68.128 47.1143 74.0617 50.2083C74.4793 50.4183 74.785 50.7777 74.925 51.2163C74.9958 51.4379 75.0215 51.6713 75.0007 51.9029C74.9798 52.1346 74.9128 52.3597 74.8037 52.565C74.274 53.601 73.6533 54.2987 73.2637 54.2987C72.9794 54.2974 72.6995 54.2286 72.447 54.098C66.9618 51.2343 60.8617 49.7495 54.674 49.772C51.2322 49.7651 47.8053 50.2243 44.4867 51.137C44.2653 51.1975 44.0341 51.2138 43.8064 51.185C43.5788 51.1562 43.359 51.0828 43.1596 50.9691C42.9603 50.8553 42.7853 50.7034 42.6447 50.5221C42.504 50.3407 42.4005 50.1334 42.34 49.912C42.0787 48.9273 42.6783 47.2053 43.565 46.9627ZM43.25 40.2287C42.9874 40.2961 42.714 40.3108 42.4456 40.272C42.1773 40.2332 41.9193 40.1416 41.6865 40.0025C41.4537 39.8635 41.2508 39.6797 41.0894 39.4618C40.9281 39.2439 40.8115 38.9962 40.7463 38.733C40.4593 37.571 41.185 36.2223 42.2397 35.9563C46.3078 34.9543 50.4819 34.4459 54.6717 34.442C62.7217 34.442 70.4357 36.2527 77.5943 39.825C78.0862 40.0696 78.4608 40.4994 78.6358 41.0201C78.8108 41.5408 78.7719 42.1097 78.5277 42.6017C78.194 43.2737 77.4707 43.997 76.6727 43.997C76.3597 43.9958 76.0508 43.9266 75.7673 43.794C69.2213 40.5101 61.9951 38.8109 54.6717 38.8333C50.8567 38.8333 47.0137 39.3023 43.25 40.2287Z" fill="#1ED760"/>
<path d="M109.159 32.123C111.453 32.123 113.264 30.7168 113.264 28.5195C113.264 24.415 107.006 25.3555 107.006 22.6133C107.006 21.5586 107.885 20.8115 109.036 20.8115C110.082 20.8115 110.882 21.3037 111.409 22.2793L112.692 21.4883C111.884 20.0557 110.609 19.4316 109.089 19.4316C107.094 19.4316 105.459 20.6621 105.459 22.6836C105.459 26.6211 111.717 25.6191 111.717 28.6514C111.717 29.8379 110.75 30.7432 109.186 30.7432C107.639 30.7432 106.443 29.9082 106.224 28.2471L104.694 28.6338C105.072 30.9189 106.997 32.123 109.159 32.123ZM118.089 32.1494C119.152 32.1494 120.189 31.666 120.787 30.6641V32H122.264V23.2197H120.787V28.2822C120.787 29.9258 119.891 30.7695 118.493 30.7695C117.166 30.7695 116.472 29.8643 116.472 28.4141V23.2197H114.995V28.6777C115.021 30.5586 115.953 32.1494 118.089 32.1494ZM129.708 32.1494C132.09 32.1494 133.435 30.0752 133.435 27.6055C133.435 25.127 132.09 23.0703 129.682 23.0703C128.442 23.0703 127.344 23.6943 126.772 24.8018V19.5811H125.234V32H126.772V30.4092C127.344 31.5254 128.478 32.1494 129.708 32.1494ZM129.348 30.7695C127.634 30.7695 126.641 29.4072 126.641 27.6055C126.641 25.8037 127.634 24.4238 129.348 24.4238C131.062 24.4238 131.94 25.8213 131.94 27.6055C131.94 29.3896 131.062 30.7695 129.348 30.7695ZM138.312 32.1494C140.009 32.1494 141.538 31.2529 141.538 29.4072C141.538 26.0938 136.625 27.2891 136.625 25.3906C136.625 24.7314 137.249 24.2568 138.242 24.2568C139.271 24.2568 139.921 24.8457 140.308 25.5488L141.459 24.9248C140.826 23.7559 139.719 23.0703 138.295 23.0703C136.607 23.0703 135.201 23.9316 135.201 25.584C135.201 28.7393 140.07 27.3945 140.07 29.4775C140.07 30.251 139.455 30.9014 138.242 30.9014C136.95 30.9014 136.212 30.0928 135.913 29.2578L134.709 29.7852C135.148 31.1211 136.537 32.1494 138.312 32.1494ZM147.058 32.1494C148.719 32.1494 150.02 31.2354 150.573 29.6621L149.22 29.1523C148.903 30.1543 148.095 30.7959 147.04 30.7959C145.282 30.7959 144.518 29.2754 144.518 27.623C144.518 25.9971 145.282 24.4238 147.04 24.4238C148.086 24.4238 148.895 25.0742 149.246 26.0938L150.661 25.54C150.011 23.9053 148.684 23.0703 147.04 23.0703C144.324 23.0703 143.006 25.3203 143.006 27.623C143.006 30.0576 144.421 32.1494 147.058 32.1494ZM152.639 32H154.08V27.7725C154.08 25.4434 155.354 24.5205 156.462 24.5205C156.813 24.5205 157.147 24.6172 157.446 24.7842L158.132 23.5537C157.736 23.2197 157.2 23.0703 156.682 23.0703C155.653 23.0703 154.511 23.6768 154.089 24.9424V23.2197H152.639V32ZM159.67 21.4443H161.226V19.5811H159.67V21.4443ZM159.705 32H161.19V23.2197H159.705V32ZM168.626 32.1494C171.008 32.1494 172.353 30.0752 172.353 27.6055C172.353 25.127 171.008 23.0703 168.6 23.0703C167.36 23.0703 166.262 23.6943 165.69 24.8018V19.5811H164.152V32H165.69V30.4092C166.262 31.5254 167.396 32.1494 168.626 32.1494ZM168.266 30.7695C166.552 30.7695 165.559 29.4072 165.559 27.6055C165.559 25.8037 166.552 24.4238 168.266 24.4238C169.979 24.4238 170.858 25.8213 170.858 27.6055C170.858 29.3896 169.979 30.7695 168.266 30.7695ZM178.092 32.1494C179.524 32.1494 180.579 31.6924 181.555 30.6465L180.518 29.7412C179.788 30.5146 179.067 30.7959 178.101 30.7959C176.457 30.7959 175.569 29.7412 175.455 28.0537H181.774C181.81 27.9219 181.845 27.5703 181.845 27.2451C181.845 25.4346 180.887 23.0703 177.942 23.0703C175.253 23.0703 173.882 25.2324 173.882 27.6494C173.882 30.1191 175.314 32.1494 178.092 32.1494ZM175.455 26.9639C175.622 25.4258 176.448 24.3271 177.934 24.3271C179.41 24.3271 180.184 25.3203 180.333 26.4102C180.368 26.5859 180.368 26.7705 180.368 26.9639H175.455ZM192.084 32.1494C194.659 32.1494 196.426 30.1016 196.426 27.5879C196.426 25.0918 194.659 23.0703 192.084 23.0703C189.509 23.0703 187.76 25.0918 187.76 27.5879C187.76 30.1016 189.509 32.1494 192.084 32.1494ZM192.084 30.8574C190.282 30.8574 189.307 29.3721 189.307 27.5879C189.307 25.8125 190.282 24.3623 192.084 24.3623C193.895 24.3623 194.879 25.8213 194.879 27.5879C194.879 29.3633 193.895 30.8574 192.084 30.8574ZM198.605 32H200.091V26.9375C200.091 25.2852 200.979 24.4502 202.376 24.4502C203.703 24.4502 204.397 25.3555 204.397 26.8057V32H205.883V26.5332C205.856 24.6523 204.916 23.0703 202.78 23.0703C201.717 23.0703 200.697 23.5537 200.091 24.5557V23.2197H198.605V32Z" fill="white"/>
<path d="M103.836 63.588C104.664 64.416 107.256 66.36 111.936 66.36C117.228 66.36 120.432 62.616 120.432 58.908C120.432 54.012 115.968 51.816 113.16 50.7C110.316 49.548 109.236 48.54 109.236 47.208C109.236 46.236 110.208 45.372 111.504 45.372C113.7 45.372 116.328 47.352 116.652 47.532C116.976 47.784 117.624 47.46 117.876 47.064L119.712 44.292C119.856 44.04 119.928 43.392 119.496 43.14C118.416 42.348 115.536 40.44 111.792 40.44C106.248 40.44 103.476 44.04 103.476 47.604C103.476 51.924 107.364 54.336 110.46 55.56C112.908 56.532 114.168 57.684 114.168 59.196C114.168 60.456 113.124 61.356 111.684 61.356C109.308 61.356 106.716 59.448 106.572 59.376C106.32 59.196 105.636 59.124 105.348 59.592L103.656 62.58C103.368 63.084 103.476 63.228 103.836 63.588ZM128.468 65.676C128.9 65.928 130.232 66.36 131.456 66.36C135.308 66.36 138.62 63.876 138.62 58.8C138.62 54.66 135.56 51.24 131.492 51.24C128.324 51.24 126.668 53.508 126.668 53.508L126.236 52.32C126.092 51.924 125.84 51.6 125.48 51.6H123.788C123.428 51.6 123.104 51.924 123.104 52.284V76.116C123.104 76.476 123.428 76.8 123.788 76.8H127.784C128.144 76.8 128.468 76.476 128.468 76.116V65.676ZM127.892 58.836C127.892 57.18 129.116 55.884 130.772 55.884C132.428 55.884 133.688 57.18 133.688 58.836C133.688 60.456 132.428 61.716 130.772 61.716C129.116 61.716 127.892 60.456 127.892 58.836ZM140.34 58.764C140.34 62.904 143.724 66.36 147.828 66.36C151.932 66.36 155.316 62.904 155.316 58.764C155.316 54.696 151.932 51.24 147.828 51.24C143.724 51.24 140.34 54.696 140.34 58.764ZM144.984 58.764C144.984 57.18 146.244 55.884 147.828 55.884C149.412 55.884 150.672 57.18 150.672 58.764C150.672 60.384 149.412 61.716 147.828 61.716C146.244 61.716 144.984 60.384 144.984 58.764ZM158.661 61.356C158.661 64.632 160.245 66.36 162.981 66.36C164.781 66.36 167.337 65.568 167.337 65.568C167.697 65.46 167.877 65.064 167.805 64.74L167.013 61.752C166.905 61.356 166.581 61.212 166.221 61.284C165.861 61.356 165.321 61.536 164.817 61.536C164.385 61.536 163.845 61.464 163.845 60.672V56.172H166.509C166.905 56.172 167.193 55.848 167.193 55.488V52.284C167.193 51.888 166.905 51.6 166.509 51.6H163.845V47.604C163.845 47.244 163.557 46.92 163.197 46.92H159.345C158.985 46.92 158.661 47.244 158.661 47.604V51.6H157.725C157.365 51.6 157.077 51.888 157.077 52.284V55.488C157.077 55.848 157.365 56.172 157.725 56.172H158.661V61.356ZM173.088 47.244C174.672 47.244 175.968 45.984 175.968 44.4C175.968 42.816 174.672 41.52 173.088 41.52C171.504 41.52 170.244 42.816 170.244 44.4C170.244 45.984 171.504 47.244 173.088 47.244ZM170.46 65.316C170.46 65.676 170.784 66 171.144 66H175.104C175.464 66 175.788 65.676 175.788 65.316V52.284C175.788 51.888 175.464 51.6 175.104 51.6H171.144C170.784 51.6 170.46 51.888 170.46 52.284V65.316ZM180.427 65.316C180.427 65.676 180.751 66 181.111 66H185.251C185.611 66 185.935 65.676 185.935 65.316V56.172H189.247C189.643 56.172 189.931 55.848 189.931 55.488V52.284C189.931 51.888 189.643 51.6 189.247 51.6H185.935V48.288C185.935 46.524 186.547 45.3 188.059 45.3C188.779 45.3 189.463 45.624 189.931 45.876C190.219 46.02 190.651 45.876 190.759 45.624L192.271 42.636C192.415 42.384 192.343 41.988 192.127 41.808C191.515 41.232 189.607 40.44 187.735 40.44C183.559 40.44 180.427 43.248 180.427 48.288V51.6H179.671C179.275 51.6 178.987 51.888 178.987 52.284V55.488C178.987 55.848 179.275 56.172 179.671 56.172H180.427V65.316ZM196.175 64.524L190.811 75.828C190.559 76.332 190.883 76.8 191.423 76.8H195.455C195.743 76.8 195.959 76.584 196.067 76.368L207.083 52.536C207.335 52.068 207.011 51.6 206.471 51.6H202.403C202.115 51.6 201.863 51.78 201.791 51.996L198.947 58.692H198.875L196.103 51.996C195.995 51.78 195.779 51.6 195.491 51.6H191.387C190.847 51.6 190.559 52.068 190.775 52.536L196.175 64.524Z" fill="#1ED760"/>
</svg>
